<svg width="64" height="64" viewBox="0 0 64 64" fill="none" xmlns="http://www.w3.org/2000/svg">
<g opacity="0.25">
<path d="M52 8H12C10.9391 8 9.92172 8.42143 9.17157 9.17157C8.42143 9.92172 8 10.9391 8 12V52C8 53.0609 8.42143 54.0783 9.17157 54.8284C9.92172 55.5786 10.9391 56 12 56H52C53.0609 56 54.0783 55.5786 54.8284 54.8284C55.5786 54.0783 56 53.0609 56 52V12C56 10.9391 55.5786 9.92172 54.8284 9.17157C54.0783 8.42143 53.0609 8 52 8ZM12 12H52V31.345L45.8275 25.17C45.0774 24.4204 44.0604 23.9994 43 23.9994C41.9396 23.9994 40.9226 24.4204 40.1725 25.17L13.3425 52H12V12ZM52 52H19L43 28L52 37V52ZM24 30C25.1867 30 26.3467 29.6481 27.3334 28.9888C28.3201 28.3295 29.0892 27.3925 29.5433 26.2961C29.9974 25.1997 30.1162 23.9933 29.8847 22.8295C29.6532 21.6656 29.0818 20.5965 28.2426 19.7574C27.4035 18.9182 26.3344 18.3468 25.1705 18.1153C24.0067 17.8838 22.8003 18.0026 21.7039 18.4567C20.6075 18.9108 19.6705 19.6799 19.0112 20.6666C18.3519 21.6533 18 22.8133 18 24C18 25.5913 18.6321 27.1174 19.7574 28.2426C20.8826 29.3679 22.4087 30 24 30ZM24 22C24.3956 22 24.7822 22.1173 25.1111 22.3371C25.44 22.5568 25.6964 22.8692 25.8478 23.2346C25.9991 23.6001 26.0387 24.0022 25.9616 24.3902C25.8844 24.7781 25.6939 25.1345 25.4142 25.4142C25.1345 25.6939 24.7781 25.8844 24.3902 25.9616C24.0022 26.0387 23.6001 25.9991 23.2346 25.8478C22.8692 25.6964 22.5568 25.44 22.3371 25.1111C22.1173 24.7822 22 24.3956 22 24C22 23.4696 22.2107 22.9609 22.5858 22.5858C22.9609 22.2107 23.4696 22 24 22Z" fill="#343434"/>
</g>
</svg>
