<svg width="592" height="136" viewBox="0 0 592 136" fill="none" xmlns="http://www.w3.org/2000/svg">
<path d="M39.936 106.768C32.1707 106.768 25.2587 105.275 19.2 102.288C13.2267 99.216 8.53334 95.0347 5.12 89.744C1.70667 84.4533 0 78.3947 0 71.568V16.4H27.904V70.416C27.904 72.8907 28.416 75.1093 29.44 77.072C30.464 78.9493 31.872 80.4427 33.664 81.552C35.5413 82.6613 37.632 83.216 39.936 83.216C42.4107 83.216 44.5867 82.6613 46.464 81.552C48.3413 80.4427 49.8347 78.9493 50.944 77.072C52.0533 75.1093 52.608 72.8907 52.608 70.416V16.4H79.872V71.568C79.872 78.3947 78.1653 84.4533 74.752 89.744C71.3387 95.0347 66.6027 99.216 60.544 102.288C54.5707 105.275 47.7013 106.768 39.936 106.768ZM100.375 106V16.4H124.183L156.823 69.52L137.495 69.392L170.519 16.4H193.559V106H166.935V84.624C166.935 76.944 167.106 70.032 167.447 63.888C167.874 57.744 168.556 51.6427 169.495 45.584L172.567 53.648L150.935 87.184H142.487L121.239 53.648L124.439 45.584C125.378 51.3013 126.018 57.1893 126.359 63.248C126.786 69.2213 126.999 76.3467 126.999 84.624V106H100.375ZM233.2 80.528L223.856 60.048L266.48 16.4H297.84L233.2 80.528ZM214 106V16.4H241.648V106H214ZM270.192 106L237.68 63.632L255.6 48.144L301.552 106H270.192ZM309.25 106V16.4H333.058L365.698 69.52L346.37 69.392L379.394 16.4H402.434V106H375.81V84.624C375.81 76.944 375.981 70.032 376.322 63.888C376.749 57.744 377.431 51.6427 378.37 45.584L381.442 53.648L359.81 87.184H351.362L330.114 53.648L333.314 45.584C334.253 51.3013 334.893 57.1893 335.234 63.248C335.661 69.2213 335.874 76.3467 335.874 84.624V106H309.25ZM421.979 106V37.52H447.963V106H421.979ZM435.035 25.104C430.427 25.104 426.8 24.0373 424.155 21.904C421.595 19.7707 420.315 16.7413 420.315 12.816C420.315 9.23201 421.638 6.28801 424.283 3.98401C426.928 1.68001 430.512 0.528015 435.035 0.528015C439.643 0.528015 443.227 1.59468 445.787 3.72802C448.432 5.86135 449.755 8.89068 449.755 12.816C449.755 16.4 448.432 19.344 445.787 21.648C443.142 23.952 439.558 25.104 435.035 25.104ZM468.393 106V37.264C468.393 32.4 469.417 27.9627 471.465 23.952C473.598 19.9413 476.542 16.7413 480.297 14.352C484.137 11.8773 488.617 10.64 493.737 10.64C497.236 10.64 500.478 11.1093 503.465 12.048C506.452 12.9867 509.268 14.2667 511.913 15.888L505.129 34.448C504.02 34.192 503.038 34.0213 502.185 33.936C501.332 33.7653 500.606 33.68 500.009 33.68C498.644 33.68 497.534 33.936 496.681 34.448C495.913 34.96 495.316 35.728 494.889 36.752C494.548 37.6907 494.377 38.8853 494.377 40.336V106H481.449C478.206 106 475.476 106 473.257 106C471.124 106 469.502 106 468.393 106ZM459.049 60.432V39.952H506.921V60.432H459.049ZM523.123 135.44L540.147 95.248L540.403 105.744L508.275 37.52H537.203L546.675 60.304C547.699 62.6933 548.552 64.9547 549.235 67.088C550.003 69.2213 550.558 71.2267 550.899 73.104L548.339 75.408C548.68 74.4693 549.192 73.0187 549.875 71.056C550.558 69.008 551.326 66.6613 552.179 64.016L561.139 37.52H590.067L560.243 106L548.211 135.44H523.123Z" fill="#F8F8FF"/>
<mask id="mask0_73_23" style="mask-type:luminance" maskUnits="userSpaceOnUse" x="416" y="0" width="41" height="28">
<path d="M456.76 0H416.76V28H456.76V0Z" fill="white"/>
</mask>
<g mask="url(#mask0_73_23)">
<path d="M39.946 106.74C32.1807 106.74 25.2687 105.247 19.21 102.26C13.2367 99.188 8.54334 95.0067 5.13001 89.716C1.71668 84.4253 0.0100098 78.3667 0.0100098 71.54V16.372H27.914V70.388C27.914 72.8627 28.426 75.0813 29.45 77.044C30.474 78.9213 31.882 80.4147 33.674 81.524C35.5513 82.6333 37.642 83.188 39.946 83.188C42.4207 83.188 44.5967 82.6333 46.474 81.524C48.3513 80.4147 49.8447 78.9213 50.954 77.044C52.0633 75.0813 52.618 72.8627 52.618 70.388V16.372H79.882V71.54C79.882 78.3667 78.1753 84.4253 74.762 89.716C71.3487 95.0067 66.6127 99.188 60.554 102.26C54.5807 105.247 47.7113 106.74 39.946 106.74ZM100.385 105.972V16.372H124.193L156.833 69.492L137.505 69.364L170.529 16.372H193.569V105.972H166.945V84.596C166.945 76.916 167.116 70.004 167.457 63.86C167.884 57.716 168.566 51.6147 169.505 45.556L172.577 53.62L150.945 87.156H142.497L121.249 53.62L124.449 45.556C125.388 51.2733 126.028 57.1613 126.369 63.22C126.796 69.1933 127.009 76.3187 127.009 84.596V105.972H100.385ZM233.21 80.5L223.866 60.02L266.49 16.372H297.85L233.21 80.5ZM214.01 105.972V16.372H241.658V105.972H214.01ZM270.202 105.972L237.69 63.604L255.61 48.116L301.562 105.972H270.202ZM309.26 105.972V16.372H333.068L365.708 69.492L346.38 69.364L379.404 16.372H402.444V105.972H375.82V84.596C375.82 76.916 375.991 70.004 376.332 63.86C376.759 57.716 377.441 51.6147 378.38 45.556L381.452 53.62L359.82 87.156H351.372L330.124 53.62L333.324 45.556C334.263 51.2733 334.903 57.1613 335.244 63.22C335.671 69.1933 335.884 76.3187 335.884 84.596V105.972H309.26ZM421.989 105.972V37.492H447.973V105.972H421.989ZM435.045 25.076C430.437 25.076 426.81 24.0093 424.165 21.876C421.605 19.7427 420.325 16.7133 420.325 12.788C420.325 9.204 421.648 6.26 424.293 3.956C426.938 1.652 430.522 0.5 435.045 0.5C439.653 0.5 443.237 1.56667 445.797 3.7C448.442 5.83333 449.765 8.86267 449.765 12.788C449.765 16.372 448.442 19.316 445.797 21.62C443.152 23.924 439.568 25.076 435.045 25.076ZM468.403 105.972V37.236C468.403 32.372 469.427 27.9347 471.475 23.924C473.608 19.9133 476.552 16.7133 480.307 14.324C484.147 11.8493 488.627 10.612 493.747 10.612C497.246 10.612 500.488 11.0813 503.475 12.02C506.462 12.9587 509.278 14.2387 511.923 15.86L505.139 34.42C504.03 34.164 503.048 33.9933 502.195 33.908C501.342 33.7373 500.616 33.652 500.019 33.652C498.654 33.652 497.544 33.908 496.691 34.42C495.923 34.932 495.326 35.7 494.899 36.724C494.558 37.6627 494.387 38.8573 494.387 40.308V105.972H481.459C478.216 105.972 475.486 105.972 473.267 105.972C471.134 105.972 469.512 105.972 468.403 105.972ZM459.059 60.404V39.924H506.931V60.404H459.059ZM523.133 135.412L540.157 95.22L540.413 105.716L508.285 37.492H537.213L546.685 60.276C547.709 62.6653 548.562 64.9267 549.245 67.06C550.013 69.1933 550.568 71.1987 550.909 73.076L548.349 75.38C548.69 74.4413 549.202 72.9907 549.885 71.028C550.568 68.98 551.336 66.6333 552.189 63.988L561.149 37.492H590.077L560.253 105.972L548.221 135.412H523.133Z" fill="#00B9FB"/>
</g>
</svg>
